<?xml version="1.0" encoding="UTF-8"?>
<svg id="Laag_1" data-name="Laag 1" xmlns="http://www.w3.org/2000/svg" viewBox="0 0 512 512">
  <path d="M165.25,353.97c-1.04,0-2.1-.03-3.14-.08-14.25-.7-27.97-6.46-38.63-16.2-9.88-9.03-15.54-22.23-15.54-36.23v-40.15l.21-45.01c.12-25.84,21.24-46.86,47.08-46.86h209.94c14.15,0,26.51,5.22,35.75,15.1,10.29,11.01,15.54,27.05,14.39,44.01-1.95,28.84-20.47,49.45-46.09,51.28-1.35.1-2.72.15-4.06.15-5.93,0-11.76-.94-17.34-2.78-1.23-.41-2.52-.62-3.82-.62-3.57,0-7,1.55-9.4,4.25l-22.71,25.5c-.55.65-1.11,1.28-1.68,1.89l-.07.08-.18.18c-9.49,10-22.3,15.51-36.06,15.51-11.05,0-21.51-3.55-30.25-10.26-2.19-1.68-4.81-2.57-7.58-2.57-3.74,0-7.28,1.65-9.69,4.52l-13.07,15.54-.43.5c-11.85,14.14-29.21,22.25-47.63,22.25Z"/>
  <path d="M365.17,169.94c14.01,0,26.24,5.17,35.38,14.95,10.2,10.91,15.4,26.81,14.26,43.63-.91,13.48-5.68,25.86-13.43,34.86-8.2,9.52-19.33,15.04-32.2,15.96-1.34.1-2.69.14-4.02.14-5.87,0-11.66-.93-17.19-2.76-1.28-.42-2.62-.64-3.98-.64-3.71,0-7.27,1.61-9.77,4.42l-22.73,25.52c-.49.58-1.01,1.16-1.56,1.76l-.34.36c-9.4,9.9-22.07,15.35-35.7,15.35-10.94,0-21.29-3.51-29.95-10.16-2.28-1.75-5-2.67-7.88-2.67-3.89,0-7.56,1.71-10.07,4.69l-12.68,15.09h0s-.81.96-.81.96c-11.76,14.02-28.98,22.07-47.25,22.07-1.03,0-2.08-.03-3.11-.08-14.13-.7-27.74-6.4-38.32-16.07-9.78-8.93-15.38-22-15.38-35.86v-40.14l.21-45.02c.12-25.57,21.01-46.37,46.58-46.37h209.94M365.17,168.94h-209.94c-26.19,0-47.46,21.17-47.58,47.36l-.21,45.02v40.15c0,13.84,5.49,27.26,15.71,36.6,10.41,9.52,24.01,15.59,38.94,16.33,1.06.05,2.11.08,3.16.08,19.28,0,36.52-8.72,48.01-22.42h0s13.49-16.05,13.49-16.05c2.39-2.85,5.84-4.34,9.3-4.34,2.55,0,5.11.8,7.27,2.47,8.46,6.5,19.06,10.36,30.56,10.36,14.34,0,27.27-6.02,36.42-15.66h0s.25-.26.25-.26c.58-.62,1.14-1.25,1.69-1.9l22.71-25.5c2.33-2.62,5.64-4.08,9.03-4.08,1.23,0,2.46.19,3.66.59,5.5,1.82,11.39,2.81,17.5,2.81,1.35,0,2.72-.05,4.09-.15,27.48-1.97,44.69-24.27,46.55-51.75,2.2-32.55-18.56-59.64-50.64-59.64h0Z"/>
</svg>