<?xml version="1.0" encoding="UTF-8"?>
<svg id="Laag_1" data-name="Laag 1" xmlns="http://www.w3.org/2000/svg" viewBox="0 0 512 512">
  <defs>
    <style>
      .cls-1 {
        fill: #fff;
      }
    </style>
  </defs>
  <rect x="-37.28" y="-27.92" width="586.57" height="567.84"/>
  <path class="cls-1" d="M365.17,168.94h-209.94c-26.19,0-47.46,21.17-47.58,47.36l-.21,45.02v40.15c0,13.84,5.49,27.26,15.71,36.6,10.41,9.52,24.01,15.59,38.94,16.33,20.55,1.01,39.06-7.9,51.18-22.35h0s13.49-16.05,13.49-16.05c4.15-4.94,11.46-5.8,16.58-1.87,8.46,6.5,19.06,10.36,30.56,10.36,14.34,0,27.27-6.02,36.42-15.66h0s.25-.26.25-.26c.58-.62,1.14-1.25,1.69-1.9l22.71-25.5c3.17-3.56,8.16-4.99,12.69-3.49,6.72,2.22,14.01,3.2,21.6,2.66,27.48-1.97,44.69-24.27,46.55-51.75,2.2-32.55-18.56-59.64-50.64-59.64Z"/>
</svg>